# xmcd
#
# Track frame offsets: 
#        150
#        2724
#        21736
#        38062
#        40211
#        58176
#        77821
#        95611
#        113616
#        132568
#        133401
#        148024
#        149301
#        169060
#        185964
#
# Disc length: 2699 seconds
#
# Revision: 1
# Processed by: cddbd v1.5.2PL0 Copyright (c) Steve Scherf et al.
# Submitted via: ExactAudioCopyFreeDBPlugin 1.0
#
DISCID=e50a890f
DTITLE=Chrisette Michele - Let Freedom Reign
DYEAR=2010
DGENRE=R&B
TTITLE0=Fairy Tales and Castles (Part 1)
TTITLE1=I'm A Star
TTITLE2=Number One
TTITLE3=Fairy Tales and Castles (Part 2)
TTITLE4=I Don't Know Why, But I Do
TTITLE5=Let Freedom Reign (feat. Talib Kweli and Black Thought)
TTITLE6=Goodbye Game
TTITLE7=So Cool
TTITLE8=So In Love (feat. Rick Ross)
TTITLE9=So In Love (Skit)
TTITLE10=I'm Your Life
TTITLE11=I'm From N.Y. (Skit)
TTITLE12=Unsaid
TTITLE13=If Nobody Sang Along
TTITLE14=I Know Nothing
EXTD=YEAR: 2010
EXTT0=
EXTT1=
EXTT2=
EXTT3=
EXTT4=
EXTT5=
EXTT6=
EXTT7=
EXTT8=
EXTT9=
EXTT10=
EXTT11=
EXTT12=
EXTT13=
EXTT14=
PLAYORDER=
